<?xml version="1.0" encoding="utf-8"?>
<!-- Generator: Adobe Illustrator 27.7.0, SVG Export Plug-In . SVG Version: 6.00 Build 0)  -->
<svg version="1.1" id="Capa_1" xmlns="http://www.w3.org/2000/svg" xmlns:xlink="http://www.w3.org/1999/xlink" x="0px" y="0px"
	 viewBox="0 0 800 800" style="enable-background:new 0 0 800 800;" xml:space="preserve">
<style type="text/css">
	.st0{fill:#FFFFFF;}
</style>
<path class="st0" d="M400,51.9c-202.1,0-366.5,148-366.5,329.8c0,63.6,20.1,125.2,58.2,178.4c-7.2,79.9-26.6,139.1-54.7,167.2
	c-3.7,3.7-4.6,9.4-2.3,14.1c2.1,4.2,6.4,6.8,10.9,6.8c0.6,0,1.1,0,1.7-0.1c4.9-0.7,119.9-17.2,203-65.2
	c47.2,19,97.5,28.7,149.6,28.7c202.1,0,366.5-148,366.5-329.8S602.1,51.9,400,51.9z"/>
<circle cx="237" cy="390.7" r="65.5"/>
<circle cx="400.3" cy="390.7" r="65.5"/>
<circle cx="563" cy="390.7" r="65.5"/>
</svg>
