<?xml version="1.0" encoding="utf-8"?>
<!-- Generator: Adobe Illustrator 27.7.0, SVG Export Plug-In . SVG Version: 6.00 Build 0)  -->
<svg version="1.1" id="Capa_1" xmlns="http://www.w3.org/2000/svg" xmlns:xlink="http://www.w3.org/1999/xlink" x="0px" y="0px"
	 viewBox="0 0 800 800" style="enable-background:new 0 0 800 800;" xml:space="preserve">
<style type="text/css">
	.st0{fill:#FFFFFF;}
</style>
<path class="st0" d="M698.5,721.9h-597c-37.8,0-68.4-30.6-68.4-68.4v0c0-37.8,30.6-68.4,68.4-68.4h597c37.8,0,68.4,30.6,68.4,68.4v0
	C766.9,691.3,736.3,721.9,698.5,721.9z"/>
<path class="st0" d="M698.5,468.4H286.3c-37.8,0-68.4-30.6-68.4-68.4v0c0-37.8,30.6-68.4,68.4-68.4h412.1
	c37.8,0,68.4,30.6,68.4,68.4v0C766.9,437.8,736.3,468.4,698.5,468.4z"/>
<path class="st0" d="M698.5,214.8h-597c-37.8,0-68.4-30.6-68.4-68.4v0c0-37.8,30.6-68.4,68.4-68.4h597c37.8,0,68.4,30.6,68.4,68.4v0
	C766.9,184.2,736.3,214.8,698.5,214.8z"/>
</svg>
