<?xml version="1.0" encoding="utf-8"?>
<!-- Generator: Adobe Illustrator 27.7.0, SVG Export Plug-In . SVG Version: 6.00 Build 0)  -->
<svg version="1.1" id="Capa_1" xmlns="http://www.w3.org/2000/svg" xmlns:xlink="http://www.w3.org/1999/xlink" x="0px" y="0px"
	 viewBox="0 0 3401.6 1133.9" style="enable-background:new 0 0 3401.6 1133.9;" xml:space="preserve">
<style type="text/css">
	.st0{fill:#71D3A9;}
</style>
<g id="ef9GdX.tif_00000034085114381681025120000018203241632339588487_">
	<g>
		<path class="st0" d="M2056.7,1001.4c-27.2-0.3-54.3,1.1-81.5-1.6c-5.1-0.5-10.2-1-15.2-2.3c-13.3-3.5-26.8-5.8-40.2-8.4
			c-20.6-4.1-40.4-10.9-59.9-18.7c-12.3-4.9-23.5-11.8-35.8-16.5c-8.5-3.3-15.9-9.4-23.5-14.5c-7-4.7-14.1-9.5-20.9-14.5
			c-17.6-13-33.6-27.9-47.6-44.5c-16.1-19.1-31.2-38.9-43.2-61.3c-6.5-12-11.8-24.5-17.6-36.6c-6.2-12.9-12.5-26.5-15.1-41
			c-1.3-7.4-2.7-14.6-6.1-21.7c-3.4-6.9-4.6-14.8-5.4-22.7c-1.2-12.1-2.4-24.3-6.1-36.1c-4.3-13.7-4.8-28-5.2-42.1
			c-0.9-37.9-1.3-75.8,1.2-113.6c1.6-24.9,8.6-49.1,10.7-73.9c1.1-13.7,8.4-25.4,10.9-38.7c3.4-18.5,10.6-35.8,19.6-52.3
			c4.3-7.9,7.3-16.3,11.7-24.3c12.1-21.9,26.3-42.3,42.4-61.1c17.8-20.7,38.1-38.8,61-54.3c15.7-10.6,32.2-19.2,48.7-28.1
			c3-1.6,6.4-2.4,9.5-3.8c20.5-9.4,42.7-13.3,63.7-21.3c5-1.9,10.5-2,15.8-3.2c34.5-7.8,69.5-12.5,104.7-11.7
			c37.8,0.9,76.1-2.8,113.4,5.5c21.3,4.8,43.2,7.3,64.1,15.2c14.1,5.3,28.6,9.9,42.2,16.4c16.5,7.9,32.2,17.1,46.4,29
			c15.2,12.8,30.2,25.5,42.3,41.3c8.5,11,15.3,23.1,22.3,35.1c6.9,11.9,10.3,25.2,16.5,37.3c5.2,10.3,4.7,21.9,6.5,32.9
			c3.6,22.2,7.8,44.5,5.3,67c-3,27.4-4.2,55.2-10.1,82.1c-5.4,24.7-11.9,49.4-21.8,72.7c-8.9,21.1-20.9,40.7-39.1,54.9
			c-16.5,12.8-34.8,22.1-55,29.3c-28.3,10-57.7,13.3-86.6,18.1c-37.7,6.2-76.1,5.9-114.3,4c-10-0.5-20.3,0.2-30-1.8
			c-28-5.7-56.1-10.5-83.1-20.4c-18.1-6.6-36.3-12.8-53.5-21.3c-7.7-3.8-15.7-3.1-23.7-2.4c-4,0.4-5.5,3.7-6.5,7.1
			c-3.8,12.7-1.7,24.9,4.1,36.3c5.8,11.2,11.8,22.6,21.2,31.4c5.3,5,10.5,10.7,16.9,13.9c10.5,5.2,21.2,10.4,31,16.2
			c16,9.5,34.3,10.8,50.6,18.7c9,4.5,19.7,3.7,29.6,4.6c32.8,3,65.9,3.3,97.9-3.7c19.9-4.3,40.4-8.7,59.6-17.5
			c12.1-5.6,24.8-10.5,36.5-16.7c11.2-6,23.5-9.6,34-16.8c0.2-0.1,0.4-0.3,0.6-0.4c14.5-4.1,27.9-11.9,43.1-13.7
			c9.9-1.2,19.1,1.4,28.5,4.7c14.3,4.9,25.3,13.6,34.5,25c6.6,8.1,11.9,17.1,16.8,26.4c11.7,22.4,14.9,46.7,16,71.4
			c0.8,17.7-0.7,35.5-6.4,52.1c-3.5,10.3-9.5,20-16.7,29c-9.2,11.5-20.2,21-31.1,30.7c-6.1,5.4-13.3,9-20,13.4
			c-16.9,11.1-35.2,19.7-53.6,28.2c-16.1,7.4-33.4,10.9-49.7,17.2c-15.3,5.9-31.8,5.6-47.3,10c-21.7,6.2-44,6.2-66.3,6.5
			C2084.1,1001.6,2070.4,1001.4,2056.7,1001.4z M2207.4,402.1c1.5-16.8-3.3-32.3-9.6-47.6c-5-12.1-13-20.7-26.2-22.9
			c-9.4-1.6-19.1-1.8-28.5,0.5c-11.6,2.9-20.5,10.9-25.1,20.7c-6,12.8-10.9,26.6-11.7,41.3c-1.3,21-0.2,41.6,8.4,61
			c3.8,8.5,10.2,15,19.2,18.1c16,5.6,32.2,5.6,48.2-0.2c4.4-1.6,8.9-3.6,11.2-7.8c5.5-10,10.8-20.4,12.3-31.8
			C2206.9,423.1,2206.9,412.6,2207.4,402.1z M1927,410.2c-0.5,8.6-0.5,17.5,1.4,26.1c3.5,16.1,8.9,31.4,26.6,37.5
			c9.3,3.2,19,4.7,28.9,3.7c22.5-2.2,34.6-10.3,38.8-34.2c5-28.1,5.3-55.7-2.3-83.4c-4.3-15.6-15.1-26.7-31.2-28.6
			c-12.2-1.4-25.2-2.6-35.6,4.7c-15.1,10.6-21.9,27.1-25.2,44.7C1926.7,390.2,1926.4,400.2,1927,410.2z"/>
		<path class="st0" d="M1321.6,674.1c-21.7,0.4-44.4,0.6-66.6-3.1c-20.9-3.4-42.1-7.3-62.2-13.5c-24.3-7.5-48.6-15.8-71.5-27.3
			c-7.8-3.9-17.1-7.1-25.2-1.3c-7.8,5.6-6.2,15-5.2,23.1c4,31.2,22.8,51.7,48.7,67.3c12.1,7.3,25.3,12.5,37.7,19.3
			c1.9,1.1,3.9,2,6,2.7c20.9,6.6,41.5,14.2,63.9,14.8c32.6,0.9,65.1,2.2,97.3-4.2c16.1-3.2,32.3-7.1,47.3-13
			c19.8-7.8,39.6-16.2,58.2-26.9c19.4-11.1,40-19.4,61.9-24.1c20.4-4.3,38.2,2.9,53.7,15.5c17,13.8,27.3,31.9,35.4,52.5
			c12.9,32.7,12.5,65.7,7.9,99.3c-2,14.2-9.9,26.3-18.4,37.8c-9.4,12.6-20.9,23.2-33.2,32.8c-7.8,6.1-16.8,10.8-24.9,16.6
			c-11.3,8.2-24.6,12.9-36.6,19.8c-8.8,5.1-18.7,9.3-28.1,12c-18.5,5.2-35.8,14.5-55.4,16c-20.5,1.6-40.1,8.9-60.8,10
			c-36.4,1.9-72.8,3.1-109.3,1.5c-18.8-0.8-38.1,1.1-56.3-3.9c-23.8-6.6-48.6-7.5-72.1-16.4c-13.7-5.2-28.4-9-41.6-15.5
			c-11.9-5.8-24.3-10.9-35.4-18.6c-13.7-9.3-28.1-17.6-40.9-28.3c-17-14.3-33.1-29.2-47.5-46.3c-10.7-12.8-20.2-26.3-29.2-40.1
			c-8-12.3-15.2-25.4-20.7-39.2c-6.7-16.7-13-33.5-18.7-50.6c-8.6-25.9-12.3-52.8-18.6-79.1c-1.9-7.9-3.2-15.8-3.5-23.9
			c-2.3-55-3.7-110,2.6-164.7c2.3-19.9,6.1-40,10.9-59.6c3.5-14.1,7.5-28.3,12.5-41.9c9-24.5,19.2-48.9,33.9-70.7
			c9.5-14.1,19.1-28.2,29.8-41.5c12.8-15.8,27.3-29.8,42.5-43c12.6-11,26.5-20.5,41-29.1c17.5-10.3,35.9-18.3,55-25.4
			c25.7-9.7,51.8-16.6,78.7-21.9c28.2-5.6,56.4-9.5,85.1-8.7c39.3,1.1,79-3.2,117.9,4.5c21.4,4.2,43,7.4,64.1,14.7
			c21.1,7.4,41.2,16.3,60.9,26.4c26.6,13.6,48.1,33.3,67.3,55.7c14,16.4,26.4,34.2,34.1,54.2c6.8,17.8,13.6,35.7,16.3,55.2
			c6.6,48.5,3.3,96.6-4.5,144.4c-4.3,26.4-11.6,52.5-22.2,77.3c-12.2,28.7-30.2,53.5-57.6,69.3c-26,15-54.2,24.3-84.3,27.5
			c-12.6,1.3-24.9,5.2-37.5,6.9C1377.2,673.3,1349.8,674.2,1321.6,674.1z M1429.7,406.6c2.1-17.9-2.6-34.3-8-50.9
			c-3.8-11.5-11.4-18.5-21.3-22.2c-12.8-4.8-26.4-4.1-39.6,0.1c-2.9,0.9-5.2,2.6-7.4,4.5c-14.2,12.1-19.1,29-22.8,46.1
			c-2.6,11.7-1.9,23.8-1.6,35.8c0.3,13.4,4.3,25.9,10.1,37.9c3.5,7.3,9.3,12.8,17,15.3c14.7,4.8,29.6,6,44.7,1.6
			c10.2-2.9,17.4-9.4,20.6-19.2C1426.5,439.7,1432.8,423.8,1429.7,406.6z M1249.5,407.6c0.5-16.1-2.1-31.4-5.7-46.7
			c-4.3-18.5-18-29.5-37.2-30.2c-7.1-0.3-14.2,0.5-21.2,1.6c-4.7,0.8-8.7,2.7-12.1,6.2c-14,13.8-21.6,30.5-22.2,50.1
			c-0.4,12.2-0.2,24.4-0.3,36.6c0,7.6,1.2,15.2,3.8,22.3c4.6,12.9,12.6,22.4,26.6,27c14.1,4.6,27.4,3,41.1-0.6
			c11.5-3,18.7-11,21.5-21.8C1247.6,437.6,1250.3,422.6,1249.5,407.6z"/>
		<path class="st0" d="M3090.4,547.6c-0.9,34.7-0.3,66.6-3.9,98.2c-2.4,20.8-6.8,41.5-7.3,62.5c-0.9,33.7-9.4,66.2-15,99.1
			c-4.2,24.5-12.5,48.8-23.9,71.3c-10.4,20.5-24.6,38.9-45.2,49.7c-13.1,6.8-27.7,12.1-43.3,12.8c-24.6,1.2-48.9-0.5-72.7-7.2
			c-2.6-0.7-5.3-1.2-7.9-1.6c-25.1-3.6-45.3-15.7-61.4-35c-16.8-20.2-25.7-43.1-26.7-69.6c-1.8-46.8-0.2-93.6,6.9-139.6
			c7.3-47.6,8.4-95.1,9.2-142.9c0.2-11.2-0.5-22.5-2.9-33.5c-2.8-13.1-15.3-23.8-28.8-23.6c-13.4,0.3-23.8,6.1-32,17.4
			c-7.4,10.3-9.2,21.7-11.5,33.4c-7,37.5-6.7,75.3-7.3,113.2c-0.7,45.7-0.4,91.4-4.5,137c-2,21.6-7.8,42.6-17.7,62.3
			c-4.5,8.9-8.5,17.9-15.2,25.6c-6.1,7-12.9,13-20,18.9c-11.4,9.6-25.5,13-38.8,18.3c-6.5,2.6-13.2,3.9-20,4.2
			c-21.3,1-42.8,2.7-63.7-1.6c-25.7-5.3-49.9-14.8-67.5-35.5c-6.5-7.6-11.2-16.8-16.3-25.7c-8-14.2-9.4-30.2-16.3-44.4
			c-4-8-3.9-17.1-4.5-25.9c-3.5-47.8-6.1-95.6-4.1-143.5c2.3-55.1,1.7-110.6,8.9-165.3c3.8-29,4-58.5,10.1-87.1
			c4-18.6,6-37.8,11.3-55.8c5.7-19.3,11.3-39.5,23-56.4c14.5-21.1,32.4-37.1,59-43.6c26.2-6.4,52-5.9,77.9-3.4
			c23.5,2.3,42.1,22,45.4,46.4c4.2,31.7,2.7,63.2-10.4,92.7c-5.2,11.6-8.8,24.4-17.8,34.1c-2.7,2.9-3.3,6.8-0.4,10
			c3.2,3.6,6.7,1.8,9.8-0.4c9.4-6.6,15.3-16.5,22-25.3c21.4-28.1,41.3-57.2,66.9-82.1c15.3-14.8,30.6-29.5,48.6-40.8
			c11.8-7.3,24.1-13.3,37.9-17.8c35.3-11.4,70.8-9,106-4.9c17.7,2.1,35.7,7.8,52.6,16.2c22.4,11.1,40.9,26.2,57.4,44.4
			c7.7,8.5,13.9,18.3,18.3,28.8c4.6,11.2,10.5,21.7,14.4,33.4c6.5,19.7,8.9,40,13.9,59.8C3093.3,466.6,3089.1,508.7,3090.4,547.6z"
			/>
		<path class="st0" d="M606.4,214.1c24.3-1.4,48.8-0.5,72.4,4.5c33.6,7.1,65.9,18.5,89,46.3c8.5,10.3,15.5,21.5,20.4,34.3
			c12.5,32.5,13.9,65.9,8.5,99.5c-2.3,14.2-6.9,28.5-17.2,39.7c-13.8,15.2-32.6,17.9-51.4,19.8c-10.8,1.1-21.1-1.8-31.7-4.4
			c-19-4.6-37.9-9.8-57.1-13.6c-12.6-2.5-23.4,1.4-27.1,9.8c-4.5,10.4-1.7,20.5,5.3,28.7c10.6,12.3,23.8,21.3,38.4,28.7
			c8.8,4.5,17.5,9.4,25.9,14.6c11.1,6.8,23.2,11.4,34.3,18c9.7,5.8,20.1,11.2,29.7,17.1c18.4,11.4,36,24.4,50.1,41.2
			c8.1,9.7,16.3,19.5,22.8,30.3c4.7,7.8,9.4,16.1,12.3,24.8c11.8,35.1,16.2,71.1,14,108.2c-1.2,19.6-6.2,38.1-12.1,56.3
			c-4,12.4-10.9,23.6-18.4,34.6c-8.6,12.3-17.9,23.8-28.8,34c-15.6,14.6-33.7,25.1-53.1,34.3c-17,8.1-35.6,10.3-52.6,17.8
			c-7.2,3.2-15.3,2.9-23,4.6c-41.3,8.9-83.2,12.9-125.3,12c-22.5-0.4-45.3,0.9-67.3-4.2c-18.3-4.3-36.8-8.2-54.3-16.3
			c-14.3-6.6-27.8-13.9-40-23.8c-8.2-6.7-14-15.4-20.5-23.7c-8.5-10.9-11.7-24-17.7-35.9c-5.1-10.1-4-21.5-4.9-32.4
			c-1.5-18.8-1.1-37.6,1.9-56.3c2-12.5,8.8-22.6,15.6-32.7c7.9-11.8,18.3-20.3,31.3-26.6c15-7.3,29.8-6.7,44.9-2
			c6.6,2,13.1,4.1,19.9,5.1c11.1,1.7,22.1,3.9,32.7,7.9c13.6,5.1,27.9,4.5,42.1,3.1c7.9-0.8,16.4-9.6,16.8-17.9
			c0.5-10.8-2-20.6-10.8-28.3c-11.2-9.8-23.6-17.5-36.8-24.3c-15.1-7.8-30.5-15.2-45-23.8c-31.7-18.7-62.8-38.8-85.3-69
			c-11.1-14.9-21-30.2-28-47.7c-13.1-32.8-17.7-66.8-17.2-101.6c0.3-19.4,4-39,10.9-56.6c12.2-31.4,32.4-57.8,60.6-77.8
			c14.2-10.1,28.8-19,44.3-26.9c3.3-1.7,6.6-3.3,10-4.7c25.4-10.4,52.4-15.7,79.1-20.6c25.7-4.8,52.1-4.5,78.3-4.4
			C597.1,214.1,601.8,214.1,606.4,214.1z"/>
	</g>
</g>
</svg>
